<?xml version="1.0" standalone="no"?>
<!DOCTYPE svg PUBLIC "-//W3C//DTD SVG 20010904//EN"
 "http://www.w3.org/TR/2001/REC-SVG-20010904/DTD/svg10.dtd">
<svg version="1.0" xmlns="http://www.w3.org/2000/svg"
 width="505.000000pt" height="505.000000pt" viewBox="0 0 505.000000 505.000000"
 preserveAspectRatio="xMidYMid meet">
<metadata>
Created by potrace 1.14, written by Peter Selinger 2001-2017
</metadata>
<g transform="translate(0.000000,505.000000) scale(0.100000,-0.100000)"
fill="#000000" stroke="none">
<path d="M2504 4732 c4 -6 -1 -11 -11 -11 -86 -2 -121 -5 -140 -12 -14 -5 -23
-4 -26 4 -3 9 -7 9 -18 1 -8 -6 -22 -10 -31 -9 -10 2 -18 -2 -18 -8 0 -5 -3
-7 -7 -4 -3 4 -12 2 -20 -4 -7 -7 -13 -7 -13 -2 0 6 -13 6 -34 -1 -19 -6 -33
-13 -31 -16 2 -4 -6 -6 -18 -5 -12 1 -36 -4 -53 -11 -17 -7 -34 -10 -38 -7 -3
4 -6 0 -6 -7 0 -7 -3 -10 -7 -7 -3 4 -11 0 -17 -9 -6 -8 -21 -16 -34 -17 -12
0 -22 -4 -22 -7 0 -7 -63 -35 -72 -32 -5 1 -8 -3 -8 -8 0 -6 -16 -18 -35 -27
-19 -9 -35 -20 -35 -25 0 -4 -7 -8 -15 -8 -15 0 -25 -7 -60 -38 -8 -7 -15 -10
-15 -5 0 4 -4 3 -8 -2 -9 -13 -86 -71 -89 -67 -5 4 -83 -78 -83 -86 0 -5 -13
-27 -28 -48 -62 -86 -110 -179 -117 -224 -6 -34 -13 -65 -15 -65 -6 0 -7 -85
-1 -89 4 -3 6 -39 5 -80 -1 -42 2 -78 6 -81 4 -3 6 -14 3 -25 -3 -12 1 -22 11
-26 9 -3 13 -10 10 -15 -3 -5 0 -9 5 -9 6 0 11 -7 11 -15 0 -8 5 -15 10 -15 6
0 10 -8 10 -18 0 -10 6 -24 13 -31 10 -11 9 -12 -1 -6 -12 6 -12 3 -2 -15 6
-12 10 -31 7 -41 -3 -10 -2 -19 3 -19 4 0 5 -12 2 -26 -3 -15 -1 -24 4 -21 5
3 10 -11 12 -31 2 -46 6 -64 15 -79 4 -6 1 -14 -5 -16 -10 -4 -10 -6 0 -6 24
-2 2 -21 -24 -21 -13 0 -24 -4 -24 -10 0 -5 -6 -10 -14 -10 -13 0 -21 -20 -32
-75 -2 -11 -6 -30 -8 -42 -3 -13 -1 -23 4 -23 4 0 7 -8 6 -17 -3 -19 4 -42 36
-111 11 -24 21 -48 22 -55 1 -7 4 -16 7 -22 4 -5 5 -19 3 -30 -1 -10 1 -24 5
-30 5 -5 11 -22 15 -37 3 -14 17 -40 31 -56 13 -16 22 -32 18 -36 -3 -3 -1 -6
6 -6 7 0 9 -4 6 -10 -3 -5 1 -10 9 -10 9 0 15 -5 14 -12 -2 -7 2 -12 7 -13 6
0 25 -9 43 -19 19 -9 40 -15 47 -13 13 5 40 -41 30 -51 -3 -3 1 -15 8 -26 8
-12 16 -32 20 -46 8 -35 34 -105 57 -153 11 -23 20 -47 20 -54 0 -8 4 -12 9
-9 4 3 14 -13 21 -34 7 -22 17 -40 21 -40 5 0 6 -7 3 -15 -4 -8 -2 -15 3 -15
5 0 9 -8 10 -17 1 -10 4 -39 6 -66 2 -26 0 -50 -5 -53 -4 -3 -5 -11 -2 -17 4
-7 4 -9 0 -5 -9 7 -136 -117 -136 -133 0 -5 -6 -9 -12 -10 -7 0 -33 -25 -58
-54 -25 -29 -48 -54 -51 -54 -3 -1 -27 -21 -54 -46 -56 -54 -105 -90 -105 -78
0 4 -4 3 -8 -2 -4 -6 -51 -32 -104 -59 -54 -26 -98 -53 -98 -59 0 -6 -3 -7 -6
-4 -4 3 -16 1 -28 -5 -11 -7 -23 -13 -26 -14 -11 -2 -49 -18 -120 -51 -41 -19
-79 -35 -85 -36 -5 -1 -12 -4 -15 -7 -3 -3 -50 -27 -105 -54 -55 -27 -103 -54
-107 -60 -4 -6 -8 -7 -8 -3 0 4 -17 -4 -37 -18 -21 -14 -41 -25 -46 -25 -4 0
-13 -5 -20 -10 -25 -21 -88 -60 -97 -60 -6 0 -10 -4 -10 -10 0 -5 -6 -10 -14
-10 -8 0 -16 -4 -18 -8 -1 -5 -28 -27 -59 -49 -55 -41 -166 -147 -202 -194
-46 -60 -71 -127 -82 -219 -2 -14 -4 -25 -5 -25 -2 0 -4 -11 -5 -25 -1 -14 -5
-37 -9 -51 -4 -14 -9 -34 -11 -45 -2 -10 -4 -19 -5 -19 -1 0 -3 -9 -4 -20 -2
-11 -11 -49 -21 -85 -10 -36 -19 -72 -20 -80 -1 -8 -5 -22 -8 -30 -3 -8 -11
-33 -18 -55 -6 -22 -16 -46 -22 -52 -5 -7 -7 -13 -4 -13 3 0 1 -15 -4 -32 -11
-37 -18 -62 -25 -95 l-4 -23 2525 0 2526 0 -2 273 c-1 153 -6 280 -11 291 -8
14 -7 17 3 11 8 -6 10 -4 4 5 -5 7 -10 38 -12 69 -5 83 -9 114 -18 133 -4 9
-4 21 -1 27 4 5 3 12 -1 14 -5 3 -8 28 -7 56 0 28 -3 51 -8 51 -4 0 -7 3 -6 7
1 5 -4 32 -12 62 -10 36 -26 65 -51 90 -47 47 -77 71 -89 71 -6 0 -10 5 -10
10 0 6 -7 10 -15 10 -8 0 -15 4 -15 8 0 5 -16 14 -35 22 -19 8 -35 17 -35 21
0 4 -8 9 -17 13 -10 3 -34 15 -53 26 -68 40 -75 44 -82 42 -5 -1 -8 3 -8 8 0
5 -3 9 -7 8 -5 -1 -22 6 -40 15 -18 9 -39 17 -48 17 -9 0 -13 5 -10 10 3 6 -2
10 -12 10 -11 0 -23 4 -29 9 -5 5 -26 14 -46 21 -21 6 -38 16 -38 22 0 6 -3 8
-6 5 -4 -3 -16 -1 -28 5 -11 7 -23 13 -26 13 -3 1 -23 9 -44 18 -22 10 -50 20
-63 23 -13 4 -23 9 -23 13 0 4 -12 8 -27 9 -15 1 -32 7 -37 12 -6 6 -18 10
-28 10 -10 0 -26 4 -36 9 -38 20 -112 42 -122 36 -5 -3 -10 -2 -10 2 0 5 -17
15 -37 22 -21 7 -47 16 -58 21 -37 17 -100 43 -105 44 -30 8 -100 41 -100 47
0 5 -7 9 -15 9 -42 0 -174 96 -259 189 -17 18 -39 42 -48 52 -10 10 -18 24
-18 29 0 6 -3 10 -7 10 -5 0 -21 21 -38 45 -16 25 -34 45 -38 45 -5 0 -6 4 -3
8 3 5 -6 15 -19 22 -13 7 -22 17 -19 22 3 4 0 8 -5 8 -14 0 -14 57 -1 65 6 4
8 10 5 15 -3 5 -1 11 5 15 6 4 8 10 5 15 -3 5 3 13 12 19 10 5 17 11 15 13 -6
5 10 58 17 58 7 0 9 7 13 49 1 11 6 17 10 15 4 -3 9 4 9 15 2 21 5 37 9 46 7
14 24 99 22 108 -1 4 2 7 7 7 5 0 9 11 9 24 0 33 21 52 57 51 18 -1 37 7 48
18 9 11 17 16 17 11 0 -5 5 -1 11 8 5 10 9 19 8 20 -1 2 4 14 11 28 8 14 13
28 12 33 -1 4 2 7 8 7 5 0 10 9 10 20 0 11 4 20 8 20 5 0 9 6 10 13 3 21 10
62 12 67 1 3 3 10 5 15 1 6 3 12 4 15 1 3 4 14 6 26 3 12 14 42 25 68 11 26
18 52 14 57 -3 5 0 9 6 9 7 0 10 6 7 14 -3 8 -3 17 1 20 9 9 10 46 1 46 -4 0
-5 10 -1 22 4 16 2 19 -9 13 -11 -6 -12 -5 -2 5 10 10 9 19 -5 42 -23 40 -49
53 -70 36 -13 -11 -15 -11 -7 2 7 13 6 13 -7 2 -13 -10 -17 -10 -21 0 -4 10
-6 10 -6 1 -1 -7 -5 -13 -11 -13 -11 0 -14 33 -3 44 8 8 14 32 16 64 0 12 3
22 7 22 3 0 6 39 8 88 1 48 3 124 5 169 1 46 6 83 10 83 4 0 3 9 -3 19 -7 14
-6 21 3 24 9 4 9 6 -1 6 -9 1 -10 6 -2 20 7 14 6 21 -3 24 -9 4 -9 6 1 6 10 1
10 6 1 22 -9 17 -8 20 2 14 9 -6 11 -3 6 8 -4 10 -1 17 6 17 8 0 6 4 -3 10
-13 9 -13 10 0 10 13 0 13 1 0 10 -11 7 -11 10 -2 10 9 0 10 5 2 19 -7 14 -6
21 3 24 9 4 8 6 -2 6 -10 1 -11 4 -2 15 10 12 8 17 -10 27 -22 11 -22 12 -3
27 18 14 18 14 -4 9 -19 -4 -21 -3 -12 8 14 17 3 38 -16 31 -8 -3 -14 -1 -14
4 0 6 6 10 13 10 8 0 7 4 -3 10 -13 8 -13 13 -2 30 13 21 8 45 -8 35 -5 -3
-14 5 -21 17 -11 21 -11 22 4 9 10 -7 17 -9 17 -3 0 12 -29 24 -41 16 -5 -3
-9 0 -9 5 0 6 7 11 15 11 8 0 15 5 15 11 0 6 -10 9 -22 8 -13 -2 -30 1 -38 6
-15 10 -20 11 -41 14 -8 1 -8 5 0 15 9 11 9 16 0 22 -8 4 -9 3 -5 -4 9 -15
-38 -16 -65 -2 -15 9 -19 7 -20 -7 0 -14 -2 -15 -6 -3 -3 8 -11 18 -17 22 -8
5 -7 8 2 8 6 0 12 9 12 21 0 13 -4 18 -12 13 -8 -5 -8 -1 1 10 13 15 13 19 0
27 -8 5 -11 9 -7 9 4 0 2 15 -4 33 -5 17 -10 37 -11 44 0 7 -4 10 -8 7 -4 -2
-14 3 -22 11 -9 8 -19 15 -23 15 -3 0 -15 9 -25 21 -9 11 -19 19 -21 18 -2 -1
-21 6 -43 16 -38 16 -94 27 -142 28 -13 1 -23 4 -23 9 0 4 -7 5 -15 2 -8 -4
-12 -11 -8 -18 3 -6 -3 -3 -14 7 -11 9 -23 14 -27 10 -10 -11 -36 -12 -36 -2
0 5 -9 9 -21 9 -13 0 -18 -4 -13 -12 6 -10 5 -10 -7 -1 -8 6 -36 13 -62 14
-26 2 -47 8 -47 13 0 8 -3 8 -8 1 -9 -13 -42 -13 -61 -1 -9 6 -12 5 -7 -2z"/>
<path d="M3316 4368 c3 -5 10 -6 15 -3 13 9 11 12 -6 12 -8 0 -12 -4 -9 -9z"/>
</g>
</svg>
